<svg xmlns="http://www.w3.org/2000/svg" viewBox="0 0 360 96" role="img" aria-labelledby="title desc">
  <title id="title">Bumpgrade logo</title>
  <desc id="desc">Bumpgrade logo lockup with the publisher growth OS descriptor.</desc>
  <rect x="8" y="8" width="80" height="80" rx="19" fill="#12392d"/>
  <path d="M31 26h25.8c11.4 0 18.3 5.8 18.3 14.8 0 5.7-3 9.9-8 12.1 6.6 1.9 10.3 6.7 10.3 13.2C77.4 76.2 69.3 82 56.8 82H31V26Z" fill="#f8f3e7"/>
  <path d="M43.5 37.8h9.8c4.4 0 7 2.2 7 5.8s-2.6 5.8-7.1 5.8h-9.7V37.8Z" fill="#12392d"/>
  <path d="M43.5 60.7h11.8c4.6 0 7.5 2.3 7.5 6.1 0 3.9-2.8 6.7-7.7 6.7H43.5V60.7Z" fill="#12392d"/>
  <path d="M31 26h11.6v56H31z" fill="#f8f3e7"/>
  <path d="M39 66.6h11.8l9-9h14.8" fill="none" stroke="#d8a443" stroke-width="5.8" stroke-linecap="round" stroke-linejoin="round"/>
  <path d="M70.2 49.7l4.1 7.1-7.4 1" fill="none" stroke="#d8a443" stroke-width="5.8" stroke-linecap="round" stroke-linejoin="round"/>
  <text x="112" y="44" fill="#121713" font-family="Inter, Arial, sans-serif" font-size="31" font-weight="800">Bumpgrade</text>
  <text x="114" y="68" fill="#5c645e" font-family="Inter, Arial, sans-serif" font-size="15" font-weight="600">publisher growth OS</text>
</svg>
