<svg xmlns="http://www.w3.org/2000/svg" viewBox="0 0 920 260" role="img" aria-labelledby="title desc">
  <title id="title">Bumpgrade logo</title>
  <desc id="desc">Bumpgrade wordmark with the stepped B monogram.</desc>
  <rect width="920" height="260" rx="32" fill="#f5f7f4"/>
  <g transform="translate(36 34) scale(.375)">
    <rect width="512" height="512" rx="96" fill="#174131"/>
    <path fill="#fbf8f0" d="M112 104h64v304h-64V104Zm48 0h128c70 0 112 35 112 91 0 36-17 63-48 78 41 14 64 45 64 87 0 61-46 96-122 96H160v-68h126c39 0 59-15 59-43s-20-43-59-43H160v-64h112c37 0 56-14 56-42s-19-42-56-42H160v-50Z"/>
    <path fill="#d1a752" d="M319 112h88v88h-42v-24l-76 76-30-30 76-76h-16v-34Z"/>
  </g>
  <text x="260" y="126" fill="#121713" font-family="Inter, ui-sans-serif, system-ui, -apple-system, BlinkMacSystemFont, Segoe UI, sans-serif" font-size="74" font-weight="850" letter-spacing="0">Bumpgrade</text>
  <text x="263" y="174" fill="#5c645e" font-family="Inter, ui-sans-serif, system-ui, -apple-system, BlinkMacSystemFont, Segoe UI, sans-serif" font-size="26" font-weight="700" letter-spacing="0">publisher growth OS</text>
  <rect x="260" y="199" width="470" height="2" fill="#c9d3ce"/>
  <circle cx="760" cy="200" r="11" fill="#174131"/>
  <circle cx="795" cy="200" r="11" fill="#1f536b"/>
  <circle cx="830" cy="200" r="11" fill="#8a6424"/>
  <circle cx="865" cy="200" r="11" fill="#7c3e46"/>
</svg>
